# ASF file generated by Tido's ASF writer for MATLAB.
:version 1.10
:name VICON
:units
  mass 1
  length 0.45000000000000001
  angle deg
:documentation
   .ast/.asf automatically generated from VICON data using
   VICON BodyBuilder and BodyLanguage model FoxedUp or BRILLIANT.MOD
:root
  axis xyz
  order tx ty tz rx ry rz 
  position 0 0 0
  orientation 0 0 0
:bonedata
  begin
    id 1
    name lhipjoint
    direction 0.44017800000000001 -0.82263900000000001 0.359871
    length 1.1390085000000001
    axis 0 0 0 xyz
  end
  begin
    id 2
    name lfemur
    direction 0.34201999999999999 -0.939693 0
    length 3.5465939999999998
    axis 0 0 20 xyz
    dof rx ry rz 
    limits (-160 20)
           (-70 70)
           (-60 70)
  end
  begin
    id 3
    name ltibia
    direction 0.34201999999999999 -0.939693 0
    length 3.7970234999999999
    axis 0 0 20 xyz
    dof rx 
    limits (-10 170)
  end
  begin
    id 4
    name lfoot
    direction 0.088635099999999994 -0.24352299999999999 0.96583699999999995
    length 1.1853629999999999
    axis -90 7.62852e-016 20 xyz
    dof rx rz 
    limits (-45 90)
           (-70 20)
  end
  begin
    id 5
    name ltoes
    direction 1.53703e-011 -4.2171700000000001e-011 1
    length 0.59142150000000004
    axis -90 7.62852e-016 20 xyz
    dof rx 
    limits (-90 20)
  end
  begin
    id 6
    name rhipjoint
    direction -0.399779 -0.83977299999999999 0.367367
    length 1.115766
    axis 0 0 0 xyz
  end
  begin
    id 7
    name rfemur
    direction -0.34201999999999999 -0.939693 0
    length 3.4866269999999999
    axis 0 0 -20 xyz
    dof rx ry rz 
    limits (-160 20)
           (-70 70)
           (-70 60)
  end
  begin
    id 8
    name rtibia
    direction -0.34201999999999999 -0.939693 0
    length 3.9349440000000002
    axis 0 0 -20 xyz
    dof rx 
    limits (-10 170)
  end
  begin
    id 9
    name rfoot
    direction -0.108514 -0.29813899999999999 0.94833400000000001
    length 1.1974590000000001
    axis -90 -7.62852e-016 -20 xyz
    dof rx rz 
    limits (-45 90)
           (-20 70)
  end
  begin
    id 10
    name rtoes
    direction -1.5339199999999999e-011 -4.2207699999999999e-011 1
    length 0.59392350000000005
    axis -90 -7.62852e-016 -20 xyz
    dof rx 
    limits (-90 20)
  end
  begin
    id 11
    name lowerback
    direction 0.011325699999999999 0.99986600000000003 0.0118602
    length 1.164123
    axis 0 0 0 xyz
    dof rx ry rz 
    limits (-20 45)
           (-30 30)
           (-30 30)
  end
  begin
    id 12
    name upperback
    direction -0.016474699999999998 0.99519299999999999 -0.096537499999999998
    length 1.135656
    axis 0 0 0 xyz
    dof rx ry rz 
    limits (-20 45)
           (-30 30)
           (-30 30)
  end
  begin
    id 13
    name thorax
    direction -0.019430099999999999 0.99433000000000005 -0.10455200000000001
    length 1.1524455
    axis 0 0 0 xyz
    dof rx ry rz 
    limits (-20 45)
           (-30 30)
           (-30 30)
  end
  begin
    id 14
    name lowerneck
    direction 0.014854300000000001 0.995587 -0.092657000000000003
    length 0.772119
    axis 0 0 0 xyz
    dof rx ry rz 
    limits (-20 45)
           (-30 30)
           (-30 30)
  end
  begin
    id 15
    name upperneck
    direction -0.0135467 0.99365599999999998 -0.111639
    length 0.76021650000000007
    axis 0 0 0 xyz
    dof rx ry rz 
    limits (-20 45)
           (-30 30)
           (-30 30)
  end
  begin
    id 16
    name head
    direction -0.0061534900000000002 0.99954699999999996 -0.029447999999999998
    length 0.78578999999999999
    axis 0 0 0 xyz
    dof rx ry rz 
    limits (-20 45)
           (-30 30)
           (-30 30)
  end
  begin
    id 17
    name lclavicle
    direction 0.98826700000000001 0.14988499999999999 0.029371299999999999
    length 2.012499
    axis 0 0 0 xyz
    dof ry rz 
    limits (-20 10)
           (0 20)
  end
  begin
    id 18
    name lhumerus
    direction 1 -4.4898600000000001e-011 -1.1483300000000001e-027
    length 2.4171659999999999
    axis 180 -30 -90 xyz
    dof rx ry rz 
    limits (-60 90)
           (-90 90)
           (-90 90)
  end
  begin
    id 19
    name lradius
    direction 0.99999800000000005 0.00170963 -0.00098705499999999992
    length 1.773954
    axis 180 -30 -90 xyz
    dof rx 
    limits (-10 170)
  end
  begin
    id 20
    name lwrist
    direction 0.99999800000000005 7.53149e-005 -0.00194706
    length 0.88697700000000002
    axis 4.6505600000000004e-015 90 90 xyz
    dof ry 
    limits (-180 0)
  end
  begin
    id 21
    name lhand
    direction 1 -4.48973e-011 -1.3174599999999999e-026
    length 0.5306265
    axis 8.4064999999999996e-015 90 90 xyz
    dof rx rz 
    limits (-90 90)
           (-45 45)
  end
  begin
    id 22
    name lfingers
    direction 1 -4.49107e-011 -2.6349199999999999e-026
    length 0.42780555000000003
    axis 1.6812999999999999e-014 90 90 xyz
    dof rx 
    limits (0 90)
  end
  begin
    id 23
    name lthumb
    direction 0.70710700000000004 -6.3504800000000005e-011 0.70710700000000004
    length 0.6142455
    axis -90 45 2.8529899999999998e-015 xyz
    dof rx rz 
    limits (-45 45)
           (-45 45)
  end
  begin
    id 24
    name rclavicle
    direction -0.996699 0.064289499999999999 -0.049572499999999999
    length 2.0817494999999999
    axis 0 0 0 xyz
    dof ry rz 
    limits (-10 20)
           (-20 0)
  end
  begin
    id 25
    name rhumerus
    direction -1 -4.4891899999999998e-011 -2.4105900000000001e-027
    length 2.474145
    axis 180 30 90 xyz
    dof rx ry rz 
    limits (-90 60)
           (-90 90)
           (-90 90)
  end
  begin
    id 26
    name rradius
    direction -0.99999899999999997 0.0011810099999999999 -0.00068185800000000003
    length 1.5677145000000001
    axis 180 30 90 xyz
    dof rx 
    limits (-10 170)
  end
  begin
    id 27
    name rwrist
    direction -0.99999899999999997 0.000321823 -0.00132288
    length 0.78385499999999997
    axis 4.6505600000000004e-015 -90 -90 xyz
    dof ry 
    limits (-180 0)
  end
  begin
    id 28
    name rhand
    direction -1 -4.4902199999999998e-011 -1.3174599999999999e-026
    length 0.60719400000000001
    axis 8.4064999999999996e-015 -90 -90 xyz
    dof rx rz 
    limits (-90 90)
           (-45 45)
  end
  begin
    id 29
    name rfingers
    direction -1 -4.4917800000000002e-011 -2.6349199999999999e-026
    length 0.48953249999999998
    axis 1.6812999999999999e-014 -90 -90 xyz
    dof rx 
    limits (0 90)
  end
  begin
    id 30
    name rthumb
    direction -0.70710700000000004 -6.3471300000000002e-011 0.70710700000000004
    length 0.70287750000000004
    axis -90 -45 -2.8529899999999998e-015 xyz
    dof rx rz 
    limits (-45 45)
           (-45 45)
  end
:hierarchy
begin
  root lhipjoint rhipjoint lowerback 
  lhipjoint lfemur 
  lfemur ltibia 
  ltibia lfoot 
  lfoot ltoes 
  rhipjoint rfemur 
  rfemur rtibia 
  rtibia rfoot 
  rfoot rtoes 
  lowerback upperback 
  upperback thorax 
  thorax lowerneck lclavicle rclavicle 
  lowerneck upperneck 
  upperneck head 
  lclavicle lhumerus 
  lhumerus lradius 
  lradius lwrist 
  lwrist lhand lthumb 
  lhand lfingers 
  rclavicle rhumerus 
  rhumerus rradius 
  rradius rwrist 
  rwrist rhand rthumb 
  rhand rfingers 
end

# AMC file generated by Tido's AMC writer for MATLAB on 27-Nov-2005 at 18:24:20
# Corresponding ASF file: S:\data_MoCap\MoCaDaDB\HDM\Bonn_ASF_AMC_Use IK_on\björn\bjorn.asf
# Number of frames: 542
# Sampling rate: 120
:fully-specified
:degrees
51
root -8.0202600000000004 8.5441050000000001 -5.96997 184.017 3.1972399999999999 539.06799999999998 
lfemur 0.45262999999999998 10.202199999999999 -15.395300000000001 
ltibia 21.847300000000001 
lfoot -19.3629 -6.7849000000000004 
ltoes -18.830300000000001 
rfemur -38.703800000000001 -17.872599999999998 19.063300000000002 
rtibia 34.407499999999999 
rfoot -12.946 10.058 
rtoes -16.251000000000001 
lowerback -1.78423 -2.0573700000000001 -9.9212399999999992 
upperback 9.2017100000000003 -0.52254 -4.1856400000000002 
thorax 11.1258 -0.43106800000000001 1.01833 
lowerneck 4.4515099999999999 -9.5577500000000004 0.287464 
upperneck 12.8782 -13.042899999999999 12.507 
head 3.9404499999999998 -5.53714 3.4757099999999999 
lclavicle -2.54444e-014 -3.4986099999999999e-014 
lhumerus -25.067399999999999 -7.4170999999999996 81.989000000000004 
lradius 33.496000000000002 
lwrist -20.4299 
lhand -15.6912 -4.6497400000000004 
lfingers 7.1250200000000001 
lthumb 10.498100000000001 25.068100000000001 
rclavicle -2.54444e-014 -3.4986099999999999e-014 
rhumerus -31.353400000000001 -26.261800000000001 -83.304000000000002 
rradius 18.5959 
rwrist 19.792200000000001 
rhand -7.8420500000000004 11.795299999999999 
rfingers 7.1250200000000001 
rthumb 18.0608 -17.386199999999999 
52
root -8.0102700000000002 8.5356900000000007 -6.0101100000000001 183.93600000000001 3.6453799999999998 538.89800000000002 
lfemur 1.1715500000000001 10.2218 -15.548500000000001 
ltibia 21.364000000000001 
lfoot -19.4313 -6.3719999999999999 
ltoes -18.772099999999998 
rfemur -39.263800000000003 -18.221 19.093499999999999 
rtibia 34.028100000000002 
rfoot -12.7553 10.152200000000001 
rtoes -16.934899999999999 
lowerback -1.8877900000000001 -2.1511900000000002 -9.9141899999999996 
upperback 9.2099700000000002 -0.63701300000000005 -4.2199600000000004 
thorax 11.209 -0.488647 0.959762 
lowerneck 4.7444600000000001 -9.6194000000000006 0.107987 
upperneck 12.405900000000001 -13.1107 12.737 
head 3.7786900000000001 -5.6202199999999998 3.5903900000000002 
lclavicle -3.9756899999999997e-015 -6.5201400000000003e-014 
lhumerus -25.2178 -7.7164200000000003 81.941400000000002 
lradius 34.354999999999997 
lwrist -19.567499999999999 
lhand -16.0092 -4.7843799999999996 
lfingers 7.1250200000000001 
lthumb 10.1913 24.948799999999999 
rclavicle -3.9756899999999997e-015 -6.5201400000000003e-014 
rhumerus -31.384699999999999 -27.3565 -82.808999999999997 
rradius 18.2517 
rwrist 20.741 
rhand -7.7367100000000004 11.504300000000001 
rfingers 7.1250200000000001 
rthumb 18.162199999999999 -17.6677 
53
root -8.0000099999999996 8.5265550000000001 -6.0502950000000002 183.84200000000001 4.0937799999999998 538.726 
lfemur 1.91354 10.2263 -15.7067 
ltibia 20.8721 
lfoot -19.489999999999998 -5.9478400000000002 
ltoes -18.630800000000001 
rfemur -39.825299999999999 -18.653700000000001 19.172000000000001 
rtibia 33.683199999999999 
rfoot -12.544600000000001 10.286199999999999 
rtoes -17.755800000000001 
lowerback -1.9534 -2.2581000000000002 -9.9151100000000003 
upperback 9.2159399999999998 -0.77499600000000002 -4.2479899999999997 
thorax 11.2689 -0.55786999999999998 0.91000700000000001 
lowerneck 4.9761800000000003 -9.6763100000000009 -0.0886464 
upperneck 12.0021 -13.1806 12.9354 
head 3.6476299999999999 -5.6999899999999997 3.6943000000000001 
lclavicle 3.7371499999999998e-014 5.0888900000000001e-014 
lhumerus -25.421500000000002 -7.8760500000000002 81.870500000000007 
lradius 35.215400000000002 
lwrist -18.802800000000001 
lhand -16.344999999999999 -4.9551600000000002 
lfingers 7.1250200000000001 
lthumb 9.8673400000000004 24.793600000000001 
rclavicle 3.7371499999999998e-014 5.0888900000000001e-014 
rhumerus -31.404199999999999 -27.440100000000001 -82.625900000000001 
rradius 18.180499999999999 
rwrist 20.711200000000002 
rhand -7.5804200000000002 11.165900000000001 
rfingers 7.1250200000000001 
rthumb 18.3125 -17.992100000000001 
54
root -7.9887600000000001 8.5174200000000013 -6.0904350000000003 183.744 4.5185199999999996 538.53200000000004 
lfemur 2.6467000000000001 10.274699999999999 -15.869400000000001 
ltibia 20.378499999999999 
lfoot -19.5474 -5.5936399999999997 
ltoes -18.555599999999998 
rfemur -40.352200000000003 -18.997399999999999 19.1877 
rtibia 33.375900000000001 
rfoot -12.3735 10.3146 
rtoes -17.9024 
lowerback -1.9866600000000001 -2.3654500000000001 -9.9247700000000005 
upperback 9.2093500000000006 -0.91593599999999997 -4.29129 
thorax 11.295 -0.62648400000000004 0.84928499999999996 
lowerneck 5.2439200000000001 -9.7559199999999997 -0.31866499999999998 
upperneck 11.5442 -13.2807 13.206 
head 3.5038100000000001 -5.7979200000000004 3.827 
lclavicle 1.1131899999999999e-014 -1.27222e-014 
lhumerus -25.666499999999999 -7.9969700000000001 81.791899999999998 
lradius 36.040500000000002 
lwrist -18.1601 
lhand -16.6706 -5.1054300000000001 
lfingers 7.1250200000000001 
lthumb 9.5531299999999995 24.658000000000001 
rclavicle 1.1131899999999999e-014 -1.27222e-014 
rhumerus -31.518599999999999 -27.613600000000002 -82.467500000000001 
rradius 18.2042 
rwrist 20.701000000000001 
rhand -7.5382400000000001 10.908899999999999 
rfingers 7.1250200000000001 
rthumb 18.353100000000001 -18.2453 
55
root -7.9770150000000006 8.50779 -6.1310699999999994 183.666 4.9672799999999997 538.36000000000001 
lfemur 3.3727900000000002 10.3073 -16.0168 
ltibia 19.873799999999999 
lfoot -19.601099999999999 -5.2848499999999996 
ltoes -17.9512 
rfemur -40.869900000000001 -19.270499999999998 19.224900000000002 
rtibia 33.099499999999999 
rfoot -12.212999999999999 10.276999999999999 
rtoes -17.687200000000001 
lowerback -2.04474 -2.4903499999999998 -9.9419500000000003 
upperback 9.1956000000000007 -1.0887899999999999 -4.2925599999999999 
thorax 11.3314 -0.71682999999999997 0.83292200000000005 
lowerneck 5.4482100000000004 -9.8163999999999998 -0.65723299999999996 
upperneck 11.1731 -13.372999999999999 13.4656 
head 3.4027599999999998 -5.8902200000000002 3.9686900000000001 
lclavicle -3.9756899999999997e-015 -5.4069399999999998e-014 
lhumerus -25.965199999999999 -7.8383200000000004 81.735100000000003 
lradius 36.854700000000001 
lwrist -17.717600000000001 
lhand -16.969999999999999 -5.2187299999999999 
lfingers 7.1250200000000001 
lthumb 9.2643000000000004 24.557700000000001 
rclavicle -3.9756899999999997e-015 -5.4069399999999998e-014 
rhumerus -31.516200000000001 -27.674800000000001 -82.328100000000006 
rradius 18.170500000000001 
rwrist 20.726600000000001 
rhand -7.5364699999999996 10.7166 
rfingers 7.1250200000000001 
rthumb 18.354800000000001 -18.4374 
56
root -7.9649099999999997 8.4978449999999999 -6.1716150000000001 183.57499999999999 5.3818400000000004 538.16700000000003 
lfemur 4.0934299999999997 10.3437 -16.176400000000001 
ltibia 19.3889 
lfoot -19.668500000000002 -4.9600999999999997 
ltoes -17.8276 
rfemur -41.350999999999999 -19.5579 19.240500000000001 
rtibia 32.832799999999999 
rfoot -12.074 10.1884 
rtoes -17.315200000000001 
lowerback -2.0431900000000001 -2.62141 -9.9568600000000007 
upperback 9.1719600000000003 -1.27471 -4.3143900000000004 
thorax 11.3207 -0.80927899999999997 0.79372500000000001 
lowerneck 5.6495100000000003 -9.9051100000000005 -0.98921099999999995 
upperneck 10.788399999999999 -13.5039 13.740399999999999 
head 3.3027000000000002 -6.0014200000000004 4.11287 
lclavicle -3.1010400000000002e-014 2.3854199999999999e-014 
lhumerus -26.154599999999999 -7.7687600000000003 81.569000000000003 
lradius 37.488 
lwrist -17.165800000000001 
lhand -17.2163 -5.3680700000000003 
lfingers 7.1250200000000001 
lthumb 9.0266000000000002 24.418800000000001 
rclavicle -3.1010400000000002e-014 2.3854199999999999e-014 
rhumerus -31.443200000000001 -28.0306 -82.150700000000001 
rradius 18.021899999999999 
rwrist 20.952400000000001 
rhand -7.5525599999999997 10.579800000000001 
rfingers 7.1250200000000001 
rthumb 18.339300000000001 -18.575700000000001 
57
root -7.9515000000000011 8.4870450000000002 -6.2129700000000003 183.471 5.7946299999999997 537.99599999999998 
lfemur 4.82158 10.4354 -16.288499999999999 
ltibia 18.926500000000001 
lfoot -19.764700000000001 -4.7093400000000001 
ltoes -17.876799999999999 
rfemur -41.751899999999999 -19.6478 19.201699999999999 
rtibia 32.569400000000002 
rfoot -11.9209 9.8143799999999999 
rtoes -16.5489 
lowerback -2.0394700000000001 -2.74864 -9.9612099999999995 
upperback 9.1574399999999994 -1.45706 -4.3230599999999999 
thorax 11.3184 -0.90037500000000004 0.76309800000000005 
lowerneck 5.8310599999999999 -10.0093 -1.2622899999999999 
upperneck 10.3828 -13.650700000000001 13.9877 
head 3.1965699999999999 -6.11958 4.2387300000000003 
lclavicle 2.4649300000000001e-014 1.5902800000000001e-014 
lhumerus -26.264099999999999 -7.2294900000000002 81.415199999999999 
lradius 37.930300000000003 
lwrist -17.172599999999999 
lhand -17.408300000000001 -5.5781099999999997 
lfingers 7.1250200000000001 
lthumb 8.84131 24.216699999999999 
rclavicle 2.4649300000000001e-014 1.5902800000000001e-014 
rhumerus -31.4816 -27.825800000000001 -82.132900000000006 
rradius 18.152100000000001 
rwrist 20.629899999999999 
rhand -7.5380099999999999 10.4084 
rfingers 7.1250200000000001 
rthumb 18.353300000000001 -18.745699999999999 
